<svg xmlns="http://www.w3.org/2000/svg" width="280" height="110" viewBox="0 -85 265 100">
  <path d="M62.79-61.72L62.79-61.72Q65.43-64.89 65.43-67.58L65.43-67.58Q65.43-69.58 64.04-70.48Q62.65-71.39 59.52-71.39Q56.40-71.39 51.90-69.80Q47.41-68.21 43.29-65.48Q39.16-62.74 35.57-59.06Q31.98-55.37 29.35-51.12L29.35-51.12Q23.68-41.99 23.68-33.30L23.68-33.30Q23.68-24.56 29.79-18.85L29.79-18.85Q36.87-12.21 48.29-12.21L48.29-12.21Q60.01-12.21 68.95-19.24L68.95-19.24Q72.56-22.12 75.20-26.17L75.20-26.17Q77.39-26.32 77.39-24.37L77.39-24.37Q77.39-23.58 76.90-22.46L76.90-22.46Q73.00-13.23 64.36-6.84L64.36-6.84Q51.51 2.64 35.60 2.64L35.60 2.64Q25.73 2.64 18.16-1.61L18.16-1.61Q10.01-6.15 6.79-15.23L6.79-15.23Q5.13-19.92 5.13-25.29Q5.13-30.66 6.54-35.40Q7.96-40.14 10.52-44.63Q13.09-49.12 16.60-53.22Q20.12-57.32 24.34-60.91Q28.56-64.50 33.28-67.41Q37.99-70.31 42.97-72.36L42.97-72.36Q53.37-76.76 62.74-76.76L62.74-76.76Q72.27-76.76 75.68-71.39L75.68-71.39Q76.90-69.53 76.90-67.19Q76.90-64.84 76.17-63.16Q75.44-61.47 74.32-60.25L74.32-60.25Q71.97-57.71 69.87-57.71L69.87-57.71Q67.92-57.71 63.96-60.69L63.96-60.69Q63.09-61.38 62.79-61.72ZM87.70-19.19L87.70-19.19Q90.53-14.11 100.54-14.11L100.54-14.11Q106.79-14.11 112.33-17.16Q117.87-20.21 121.83-26.17L121.83-26.17Q124.02-26.32 124.02-24.37L124.02-24.37Q124.02-22.17 121.41-18.04Q118.80-13.92 116.53-11.38Q114.26-8.84 111.45-6.67Q108.64-4.49 105.42-2.93L105.42-2.93Q98.44 0.49 90.72 0.49L90.72 0.49Q75.20 0.49 70.56-8.11L70.56-8.11Q68.90-11.23 68.90-15.26Q68.90-19.29 70.29-22.66Q71.68-26.03 74.12-29.08Q76.56-32.13 79.93-34.72Q83.30-37.30 87.26-39.16L87.26-39.16Q95.65-43.21 104.39-43.21L104.39-43.21Q110.69-43.21 113.04-39.26L113.04-39.26Q113.87-37.89 113.87-35.62Q113.87-33.35 112.72-31.15Q111.57-28.96 109.62-27.17Q107.67-25.39 105.08-24.05Q102.49-22.71 99.56-21.73L99.56-21.73Q94.38-19.97 87.70-19.19ZM87.01-23.73L87.01-23.73Q93.26-24.46 97.75-27.20L97.75-27.20Q102.49-30.13 102.49-34.06Q102.49-37.99 98.88-37.99L98.88-37.99Q94.19-37.99 90.72-33.50L90.72-33.50Q87.40-29.20 87.01-23.73ZM175.68-61.72L175.68-61.72Q178.32-64.89 178.32-67.58L178.32-67.58Q178.32-69.58 176.93-70.48Q175.54-71.39 172.41-71.39Q169.29-71.39 164.79-69.80Q160.30-68.21 156.18-65.48Q152.05-62.74 148.46-59.06Q144.87-55.37 142.24-51.12L142.24-51.12Q136.57-41.99 136.57-33.30L136.57-33.30Q136.57-24.56 142.68-18.85L142.68-18.85Q149.76-12.21 161.18-12.21L161.18-12.21Q172.90-12.21 181.84-19.24L181.84-19.24Q185.45-22.12 188.09-26.17L188.09-26.17Q190.28-26.32 190.28-24.37L190.28-24.37Q190.28-23.58 189.79-22.46L189.79-22.46Q185.89-13.23 177.25-6.84L177.25-6.84Q164.40 2.64 148.49 2.64L148.49 2.64Q138.62 2.64 131.05-1.61L131.05-1.61Q122.90-6.15 119.68-15.23L119.68-15.23Q118.02-19.92 118.02-25.29Q118.02-30.66 119.43-35.40Q120.85-40.14 123.41-44.63Q125.98-49.12 129.49-53.22Q133.01-57.32 137.23-60.91Q141.46-64.50 146.17-67.41Q150.88-70.31 155.86-72.36L155.86-72.36Q166.26-76.76 175.63-76.76L175.63-76.76Q185.16-76.76 188.57-71.39L188.57-71.39Q189.79-69.53 189.79-67.19Q189.79-64.84 189.06-63.16Q188.33-61.47 187.21-60.25L187.21-60.25Q184.86-57.71 182.76-57.71L182.76-57.71Q180.81-57.71 176.86-60.69L176.86-60.69Q175.98-61.38 175.68-61.72ZM200.59-19.19L200.59-19.19Q203.42-14.11 213.43-14.11L213.43-14.11Q219.68-14.11 225.22-17.16Q230.76-20.21 234.72-26.17L234.72-26.17Q236.91-26.32 236.91-24.37L236.91-24.37Q236.91-22.17 234.30-18.04Q231.69-13.92 229.42-11.38Q227.15-8.84 224.34-6.67Q221.53-4.49 218.31-2.93L218.31-2.93Q211.33 0.49 203.61 0.49L203.61 0.49Q188.09 0.49 183.45-8.11L183.45-8.11Q181.79-11.23 181.79-15.26Q181.79-19.29 183.18-22.66Q184.57-26.03 187.01-29.08Q189.45-32.13 192.82-34.72Q196.19-37.30 200.15-39.16L200.15-39.16Q208.54-43.21 217.29-43.21L217.29-43.21Q223.58-43.21 225.93-39.26L225.93-39.26Q226.76-37.89 226.76-35.62Q226.76-33.35 225.61-31.15Q224.46-28.96 222.51-27.17Q220.56-25.39 217.97-24.05Q215.38-22.71 212.45-21.73L212.45-21.73Q207.28-19.97 200.59-19.19ZM199.90-23.73L199.90-23.73Q206.15-24.46 210.64-27.20L210.64-27.20Q215.38-30.13 215.38-34.06Q215.38-37.99 211.77-37.99L211.77-37.99Q207.08-37.99 203.61-33.50L203.61-33.50Q200.29-29.20 199.90-23.73Z" fill="#1D1A17"></path>
  <circle cx="250" cy="-14" r="9" fill="#C96442"></circle>
</svg>